<?xml version="1.0" encoding="UTF-8"?>
<svg id="Layer_1" data-name="Layer 1" xmlns="http://www.w3.org/2000/svg" viewBox="0 0 480 480">
  <defs>
    <style>
      .cls-1 {
        fill: #fff;
      }
    </style>
  </defs>
  <path class="cls-1" d="M420.06,135.39c-16.64-23.76-49.72-30.03-73.49-13.39l-122.21,85.57-44.44-31.12c16.55-28.57,8.76-65.54-18.79-84.83-29.09-20.37-69.18-13.3-89.55,15.79-20.36,29.09-13.3,69.18,15.79,89.56,19.96,13.98,45.11,15.03,65.5,4.91l54.43,38.11-54.43,38.11c-20.39-10.11-45.54-9.06-65.5,4.91-29.09,20.37-36.16,60.46-15.79,89.55,20.37,29.09,60.46,36.16,89.55,15.8,27.55-19.29,35.33-56.26,18.79-84.83l44.44-31.12,122.21,85.57c23.77,16.65,56.85,10.38,73.49-13.39l-149.4-104.6,149.4-104.61ZM124.39,177.78c-18.41,0-33.33-14.92-33.33-33.33s14.93-33.33,33.33-33.33,33.33,14.92,33.33,33.33-14.92,33.33-33.33,33.33ZM124.39,368.89c-18.41,0-33.33-14.92-33.33-33.33s14.92-33.33,33.33-33.33,33.33,14.92,33.33,33.33-14.92,33.33-33.33,33.33Z"/>
</svg>