<?xml version="1.0" encoding="UTF-8"?>
<svg id="Layer_1" data-name="Layer 1" xmlns="http://www.w3.org/2000/svg" viewBox="0 0 480 480">
  <defs>
    <style>
      .cls-1 {
        fill: #fff;
      }
    </style>
  </defs>
  <path class="cls-1" d="M374.21,300.57c-19.36,0-35.1,15.75-35.1,35.1s15.75,35.1,35.1,35.1,35.1-15.75,35.1-35.1-15.75-35.1-35.1-35.1ZM374.21,345.99c-5.69,0-10.32-4.63-10.32-10.32s4.63-10.32,10.32-10.32,10.32,4.63,10.32,10.32-4.63,10.32-10.32,10.32Z"/>
  <path class="cls-1" d="M370.85,154.65h-60.65c-4.56,0-8.26,3.7-8.26,8.26v161.06c0,4.56,3.7,8.26,8.26,8.26h8.76c4.09,0,7.71-2.94,8.24-7,3.24-24.84,23.05-40.24,47.02-40.24s43.77,15.4,47.02,40.24c.53,4.06,4.15,7,8.24,7h8.75c4.56,0,8.26-3.7,8.26-8.26v-80.53c0-1.94-.68-3.82-1.92-5.3l-67.37-80.53c-1.57-1.87-3.89-2.96-6.33-2.96ZM318.46,220.73v-41.3c0-4.56,3.7-8.26,8.26-8.26h36.38c2.45,0,4.77,1.09,6.34,2.97l34.41,41.3c4.48,5.38.66,13.55-6.35,13.55h-70.79c-4.56,0-8.26-3.7-8.26-8.26Z"/>
  <path class="cls-1" d="M41.78,332.23h21.15c4.09,0,7.71-2.94,8.24-7,3.24-24.84,23.05-40.24,47.02-40.24s43.77,15.4,47.02,40.24c.53,4.06,4.15,7,8.24,7h103.73c4.56,0,8.26-3.7,8.26-8.26V117.49c0-4.56-3.7-8.26-8.26-8.26H41.78c-4.56,0-8.26,3.7-8.26,8.26v206.48c0,4.56,3.7,8.26,8.26,8.26Z"/>
  <path class="cls-1" d="M118.18,300.57c-19.36,0-35.1,15.75-35.1,35.1s15.75,35.1,35.1,35.1,35.1-15.75,35.1-35.1c0-19.35-15.75-35.1-35.1-35.1ZM118.18,345.99c-5.69,0-10.32-4.63-10.32-10.32s4.63-10.32,10.32-10.32,10.32,4.63,10.32,10.32-4.63,10.32-10.32,10.32Z"/>
</svg>