<?xml version="1.0" encoding="UTF-8"?>
<svg id="Layer_1" data-name="Layer 1" xmlns="http://www.w3.org/2000/svg" viewBox="0 0 480 480">
  <defs>
    <style>
      .cls-1 {
        fill: #fff;
      }
    </style>
  </defs>
  <path class="cls-1" d="M298.68,196.89c-1.18,4.17-6.86,4.17-8.04,0-9.98-35.2-37.73-62.86-72.84-72.88-4.17-1.18-4.17-6.82,0-8,35.2-10.02,62.86-37.73,72.84-72.88,1.18-4.17,6.86-4.17,8.04,0,9.98,35.2,37.73,62.86,72.84,72.88,4.17,1.18,4.17,6.82,0,8-35.12,10.02-62.86,37.73-72.84,72.88Z"/>
  <path class="cls-1" d="M442.88,276.31c-26.36,7.49-47.16,28.29-54.65,54.69-.88,3.12-5.14,3.12-5.98,0-7.49-26.4-28.29-47.2-54.65-54.69-3.16-.84-3.16-5.09,0-5.98,26.36-7.45,47.16-28.25,54.65-54.65.84-3.16,5.09-3.16,5.98,0,7.49,26.4,28.29,47.2,54.65,54.65,3.16.88,3.16,5.05,0,5.98Z"/>
  <path class="cls-1" d="M270.01,326.03c-52.67,14.99-94.27,56.51-109.22,109.26-1.81,6.27-10.27,6.27-12.08,0-14.95-52.72-56.46-94.27-109.22-109.26-6.32-1.81-6.32-10.23,0-12.04,52.67-14.95,94.27-56.46,109.22-109.22,1.81-6.32,10.27-6.32,12.08,0,14.95,52.67,56.46,94.27,109.22,109.22,6.32,1.81,6.32,10.23,0,12.04Z"/>
</svg>