<?xml version="1.0" encoding="UTF-8"?>
<svg id="Layer_1" data-name="Layer 1" xmlns="http://www.w3.org/2000/svg" viewBox="0 0 480 480">
  <defs>
    <style>
      .cls-1 {
        fill: #fff;
      }
    </style>
  </defs>
  <path class="cls-1" d="M57.6,111.5c1.97-8.2,12.18-11.1,18.17-5.11l39.85,39.87h30.62v-30.62l-39.8-39.78c-5.96-5.96-3.09-16.16,5.07-18.16,18.82-4.61,49.35-3.92,72.96,19.68,20.66,20.66,27.29,51.49,17.58,78.78l121.78,121.78c27.3-9.71,58.13-3.07,78.78,17.58,23.01,23.01,24.36,53.86,19.77,72.99-1.97,8.2-12.18,11.1-18.17,5.11l-39.85-39.87h-30.62v30.62l39.79,39.77c5.96,5.96,3.09,16.16-5.07,18.16-18.81,4.6-49.34,3.93-72.95-19.67-20.66-20.66-27.29-51.49-17.58-78.78l-121.78-121.78c-27.3,9.71-58.12,3.07-78.78-17.58-23.01-23.01-24.36-53.86-19.77-72.99h0Z"/>
  <g>
    <path class="cls-1" d="M239.99,316.51l-92.29,92.29c-18.47,18.47-47.09,20.77-68.07,6.88l83.38-83.37c4.22-4.23,4.22-11.08,0-15.3-4.23-4.22-11.08-4.22-15.3,0l-83.37,83.38c-13.89-20.99-11.6-49.6,6.88-68.07l92.29-92.29,76.5,76.5Z"/>
    <path class="cls-1" d="M423.48,86.34l-30.6,61.19c-1.59,3.18-4.63,5.37-8.15,5.88l-49.97,7.13-48.87,48.87-15.3-15.3,48.86-48.86,7.14-49.98c.5-3.52,2.7-6.56,5.88-8.15l61.19-30.6c4.16-2.08,9.2-1.26,12.48,2.03l15.3,15.3c3.29,3.29,4.1,8.32,2.03,12.48h0Z"/>
  </g>
</svg>