<?xml version="1.0" encoding="UTF-8"?>
<svg id="Layer_1" data-name="Layer 1" xmlns="http://www.w3.org/2000/svg" viewBox="0 0 480 480">
  <defs>
    <style>
      .cls-1 {
        fill: #fff;
        fill-rule: evenodd;
      }
    </style>
  </defs>
  <path class="cls-1" d="M97.9,213.69l-24.45-125.75c-.33-1.72.12-3.5,1.23-4.85,1.12-1.35,2.78-2.14,4.53-2.14h43.14v11.74h-36.01l20.2,103.91,65.08-112.71c.95-1.65,2.63-2.72,4.5-2.91.01-.01.02-.02.04-.03h224.65c3.24,0,5.87,2.63,5.87,5.87v347.31c0,3.24-2.63,5.87-5.87,5.87H103.77c-3.24,0-5.87-2.63-5.87-5.87v-220.44ZM180.08,92.69l-70.44,122.01v213.56h285.29V92.69h-214.84ZM375.51,101.08v284.48c0,2.32-1.88,4.19-4.19,4.19h-238.07c-2.32,0-4.19-1.88-4.19-4.19v-187.71l43.23-74.87h166.08c3.28,0,5.94-2.66,5.94-5.94s-2.66-5.94-5.94-5.94h-159.22l5.78-10.01h190.58ZM166.2,220.81h170.3c3.28,0,5.94-2.66,5.94-5.94s-2.66-5.94-5.94-5.94h-170.3c-3.28,0-5.94,2.66-5.94,5.94s2.66,5.94,5.94,5.94h0ZM166.2,188.2h172.17c3.28,0,5.94-2.66,5.94-5.94s-2.66-5.94-5.94-5.94h-172.17c-3.28,0-5.94,2.66-5.94,5.94s2.66,5.94,5.94,5.94h0ZM166.2,155.58h172.17c3.28,0,5.94-2.66,5.94-5.94s-2.66-5.94-5.94-5.94h-172.17c-3.28,0-5.94,2.66-5.94,5.94s2.66,5.94,5.94,5.94h0ZM166.2,286.05h170.3c3.28,0,5.94-2.66,5.94-5.94s-2.66-5.94-5.94-5.94h-170.3c-3.28,0-5.94,2.66-5.94,5.94s2.66,5.94,5.94,5.94h0ZM166.2,318.66h170.3c3.28,0,5.94-2.66,5.94-5.94s-2.66-5.94-5.94-5.94h-170.3c-3.28,0-5.94,2.66-5.94,5.94s2.66,5.94,5.94,5.94h0ZM166.2,253.43h170.3c3.28,0,5.94-2.66,5.94-5.94s-2.66-5.94-5.94-5.94h-170.3c-3.28,0-5.94,2.66-5.94,5.94s2.66,5.94,5.94,5.94h0ZM129.05,140.82V44.19c0-1.11.44-2.18,1.23-2.97.79-.79,1.85-1.23,2.96-1.23h238.07c1.11,0,2.18.44,2.97,1.23.79.79,1.23,1.85,1.23,2.97v28.37h-198.82c-5.09,0-9.8,2.72-12.35,7.13l-35.29,61.13Z"/>
</svg>