<?xml version="1.0" encoding="UTF-8"?>
<svg id="Layer_1" xmlns="http://www.w3.org/2000/svg" version="1.1" viewBox="0 0 540 540">
  <!-- Generator: Adobe Illustrator 29.7.1, SVG Export Plug-In . SVG Version: 2.1.1 Build 8)  -->
  <defs>
    <style>
      .st0 {
        fill: #ecc639;
      }

      .st1 {
        fill: #2f292b;
      }
    </style>
  </defs>
  <path class="st1" d="M283.22,407.18c-.11.12-.21.24-.31.37-1.26,1.49-2.5,2.95-3.72,4.37-2.16,2.52-4.73,4.92-6.52,7.77-1.73,2.76-2.88,5.86-3.49,9.06-.65,3.41-.55,6.94.45,10.27,1.21,4.03,3.2,7.76,5.2,11.44,1.6,2.94,3.21,5.88,4.81,8.83.2.37.4.74.6,1.11,2.94,5.4,5.91,10.85,6.6,17.5.27,2.62.2,5.41-.37,8.47.34-.32,7.4-8.38,7.95-8.99,8.73-9.83,9.3-18.95,6.61-27.58-4.79-15.37-19.94-29.17-17.81-42.6Z"/>
  <path class="st0" d="M326.46,315.57c.22,6.49,5.65,15.74,12.12,15.52,6.47-.22,11.53-9.83,11.31-16.32s-5.64-11.57-12.11-11.35c-6.47.22-11.53,5.67-11.31,12.16Z"/>
  <path class="st1" d="M368.98,318.19c-.32-2.33-.33-4.7.04-7.02-1.59,1.89-3.15,3.72-4.69,5.51-2.03,2.37-8.32,6.65-13.83,13.08-3.44,4.02-6.58,8.87-8.19,14.62-1.12,3.98-1.5,8.39-.74,13.25.52,3.3,2.77,7.74,5.57,12.11,3.13,4.89,6.94,9.7,9.75,12.73,3.48,3.76,3.6,8.08,2.35,12.08-.68,1.36-1.53,2.62-2.54,3.75h0s-.05.05-.06.07c-1.28-1.7-9.74-12.84-19.8-26.11-2.23-2.94-19.59-26.39-20.57-27.75-.17-.28-.35-.56-.52-.85-.02-.03-.03-.06-.05-.08-1.5-2.46-3.03-5.14-4.07-7.91-.06-.17-.18-.7-.31-1.3-.16-.81-.33-1.72-.36-1.96-.09-.7-.15-1.41-.17-2.13-.1-3.03.39-5.95,1.38-8.63,4.13-11.18,18.7-16.05,18.25-29.22-.06-1.89-.38-3.71-.91-5.43-.05-.08-.1-.16-.16-.24-.67.85-29.99,31.53-31.87,34.59-4.43,5.12-7.01,11.87-6.76,19.18.19,5.71,2.09,10.95,5.18,15.26.29.47.63.99.99,1.51.65.94,1.54,2.04,2.29,2.96,0,0,0,0,0,.01,0,0,0,.01.01.01.61.82,1.25,1.61,1.93,2.38,0,0,0,0,0,0,1.26,1.67,28.07,37.08,31.23,41.37.45.64.84,1.29,1.16,1.94.76,1.54,1.19,3.11,1.36,4.64.82,7.2-3.82,13.65-3.82,13.65-5.97-8.04-12.48-16.7-18.92-25.21-2.05-2.71-23.41-30.43-22.67-29.38-5.41-7.2-10.76-14.57-11.46-25.05-.02-.3-.04-.6-.05-.91-.03-.54-.04-1.08-.04-1.64v-.05c-.05.07-.1.13-.15.19h0s0,0,0,0c-2.04,1.89-3.86,4.02-5.39,6.34-4.54,5.15-7.21,11.99-6.95,19.4.17,4.84,1.55,9.35,3.85,13.24.04.1.08.19.12.29.06.08.13.16.21.25,1.21,1.94,27.29,36.37,31.23,41.59,8.14,10.8,15.65,20.75,20.43,27.04,8.51-8.99,36.06-38.75,44.15-47.46.55-.48,19.44-20.94,22.41-24.68,2.38-3,5.23-7.62,5.85-11.51.8-5.02-2.27-10-4.91-13.99-7.2-10.84-17.93-21.08-19.8-34.56ZM376.86,375.1c-.12.18-.39.51-.68.87-.44.54-.94,1.11-1.09,1.26-.09.09-.18.17-.26.26.35-2.69-.98-4.43-2.28-6.15-1.96-2.58-3.65-5.41-5.47-8.09-2.52-3.73-5.05-7.45-7.58-11.17-.64-.94-1.28-1.88-1.91-2.82-.56-.83-1.3-1.69-1.65-2.63-.58-1.58-.23-3.29.53-4.74.17-.33.37-.65.58-.96.3-.44,1.53-1.89,1.77-2.13l.26-.26c-.26,2,.41,3.48,1.31,4.82.02.02.74,1.01,1.58,2.14,2.79,3.76,5.25,7.8,7.86,11.69,1.23,1.83,2.49,3.66,3.72,5.49,1.09,1.62,2.29,3.18,3.32,4.84.35.57.68,1.15.98,1.75.99,1.97.19,4.12-.98,5.83Z"/>
  <path class="st1" d="M445.46,260.05c-8.84-11.37-18.33-22.44-26.61-34.22-5.01-6.7-9.65-13.69-9.87-23.69,0-.33-.01-.66,0-.99-.1.13-.83,1.06-1.8,2.32-6.7,5.31-10.87,13.63-10.56,22.85.31,9.12,5.3,15.31,10.54,22.23,6.98,9.23,13.96,18.46,20.97,27.67,3.66,4.81,7.28,9.65,11.03,14.38,2.64,3.33,5.1,6.83,6.42,10.92,1.21,3.72,1.44,7.67,1.1,11.55-.05.49-.1,1-.16,1.51,0,.08-.02.16-.03.24.04-.05.32-.36.77-.93,1.29-1.24,2.48-2.57,3.57-3.99,5.76-5.32,9.25-13.03,8.96-21.49-.37-10.9-7.94-20.15-14.32-28.35Z"/>
  <path class="st1" d="M423.48,281.21c-5.75-7.52-11.57-14.97-17.44-22.39-1.76-2.23-3.55-4.43-5.26-6.7l-.53-.71-2.53-3.35c-5.01-6.69-9.65-13.69-9.87-23.69,0-.33-.01-.66,0-1-.1.13-.83,1.06-1.8,2.32-6.7,5.31-10.88,13.63-10.56,22.85.24,6.89,2.94,13.1,7.22,17.82,8.07,10.72,16.17,21.4,24.28,32.08,4.02,5.28,8.04,10.56,12.05,15.85,1.61,2.11,3.24,4.29,4.01,6.84,1.8,5.96-3.53,11.47-7.61,15.08-.38-11.11-8.69-20.97-15.17-29.42-5.75-7.51-11.57-14.97-17.44-22.39-1.76-2.22-3.55-4.43-5.26-6.69l-.53-.71-2.53-3.35c-5.01-6.7-9.65-13.69-9.87-23.69,0-.33-.01-.66,0-.99-.1.13-.83,1.06-1.8,2.32-6.7,5.31-10.88,13.63-10.56,22.85.24,6.89,2.94,13.1,7.22,17.82,8.06,10.72,16.17,21.4,24.28,32.08,3.66,4.81,7.28,9.65,11.03,14.38,2.64,3.33,5.1,6.83,6.43,10.92,1.21,3.72,1.44,7.67,1.09,11.55-.04.49-.1,1-.16,1.51,0,.08-.02.16-.03.24.04-.05,29.34-31.38,31.14-34.09,3.48-5.25,5.98-11.48,5.37-17.88-.12-3.47-1.01-6.82-2.38-10.04-3.02-7.09-8.34-13.57-12.79-19.38Z"/>
  <path class="st0" d="M151.38,221.12c.7.38,1.4,4.92,2.09,5.3.33.18.65-3.81.95-3.64,5.57,3.09,6.6,4.21,12.99,7.06,4.71,2.1,5.48,7.84,5.05,11.92-.05.45-.11.88-.18,1.28-.02.12-8.16,37.61-8.31,38.3l15.03-41.74h.04c2.12-4.96,4.44-11.11,6.06-16.15,0,.02.02.03.02.03.59-1.49,1.16-2.96,1.69-4.34.52-1.84,1.04-3.84,1.18-4.71.18-1.14.3-2.24.37-3.31.03-5.51-1.73-9.63-4.58-12.94-1.46-1.7-5.89-5.82-10.81-8.08-3.39-1.56-7.08-3.83-9.55-5.33-4.21-2.24-7.88-4.81-9.65-10.55-.59,1.72-1.18,3.4-1.76,5.03-1.73,4.86-3.41,9.39-5.05,13.88-.42,1.14-.83,2.29-1.25,3.43-.54,1.79-1.15,4.03-1.32,5.04-.35,2.14-.49,4.16-.38,6.06.16,3.03.93,5.75,2.41,8.18,1.18,1.94,2.81,3.7,4.96,5.28ZM152.07,196.48c1.8.99,5.91,5.89,14.77,9.9,2.18.99,4.29,2.08,6.38,3.19,2.9,1.55,4.02,3.23,4.65,4.24.78,1.25,1.31,2.92.3,4.48-.84-1.7-.61-2.52-6.33-5.59-1.19-.52-3.39-1.62-5.84-2.92-1.29-.68-2.64-1.41-3.96-2.13-2.06-1.03-3.61-1.8-4.23-2.14-.91-.5-1.66-1.06-2.31-1.65-3.44-3.14-3.58-7.16-3.42-7.37Z"/>
  <path class="st0" d="M267.28,79.48c.34,9.87,8.58,17.6,18.42,17.26,7.84-.27,14.32-5.58,16.46-12.72.54-1.82.81-3.76.74-5.77.04,1.23-8.97-17.59-18.42-17.26-1.63.06-3.21.33-4.7.8-7.47,2.33-12.78,9.46-12.5,17.69Z"/>
  <path class="st0" d="M290.65,109.98c.07,1.97.45,3.86,1.1,5.62,1.35,3.67,3.87,6.76,7.09,8.83,2.94,1.9,6.47,2.94,10.22,2.81,9.84-.34,17.54-8.61,17.2-18.48-.28-8.1-5.88-14.76-13.31-16.7-1.62-.43-3.34-.63-5.11-.57-1.07.04-2.13.17-3.14.39-8.28,1.78-14.36,9.31-14.05,18.1Z"/>
  <path class="st1" d="M188.58,166.54c3.1,4.61,6.97,8.75,10.39,13.13,8.07,10.35,15.78,21,23.68,31.48,8.02,10.65,16.04,21.31,24.07,31.96,8.22,10.92,16.45,21.84,24.67,32.75,5.98,7.94,11.96,15.87,17.95,23.8.25.34,4.18,5.27,4.07,5.38,13.08-13.81,55.39-59.53,67.83-72.91,3-2.63,5.71-5.6,8.06-8.85,8.38-8.11,13.42-19.63,12.99-32.22-.05-1.38-.16-2.75-.33-4.09-.71-5.5-2.46-10.65-5.04-15.29-.83-1.74-1.84-3.41-3.05-5.05-1.01-1.49-2.11-2.93-3.3-4.3-.13-.16-.25-.33-.38-.5-1.15-1.68-2.39-3.29-3.72-4.83-3.61-4.7-8.9-11.55-12.14-15.85-3.32-4.41-5.81-7.83-6.21-8.64-.13-.27-.26-.54-.38-.81-.93-2.01-1.58-3.84-2.03-5.56-1.44-5.59-.67-10.02-.18-16.01.04-.49.08-.98.11-1.49.02-.28.04-.57.05-.85,0-.15.02-.3.03-.45-3.48,4.1-7.67,7.53-11.02,11.74-3.76,4.74-6.49,10.22-8.31,15.98-.2.62-.37,1.25-.54,1.87-.81,3.15-1.16,6.35-1.12,9.53,0,.72.04,1.44.08,2.15.08,1.24.22,2.47.41,3.7.4,2.55,1.02,5.06,1.82,7.5.01.04.03.08.06.17,2.02,6.21,5.41,11.78,9.8,16.36,3.49,4.62,7.86,10.36,10.49,13.85,2.01,2.67,3.39,4.52,3.41,4.54.07.11.14.22.24.36,2.01,3.51,3.22,7.54,3.36,11.87.24,6.92-2.28,13.29-6.59,18.06-.04.04-.07.07-.1.11-1.97-2.61-14.96-19.72-30.41-40.11-3.43-4.52-32.49-42.94-34.7-45.86-11.38-15.07-20.37-27.04-22.81-30.43-.26-.43-.53-.86-.8-1.3-.03-.04-.05-.09-.08-.13-2.31-3.78-4.66-7.9-6.25-12.15-.1-.26-.28-1.08-.47-2-.25-1.24-.5-2.64-.55-3.02-.14-1.08-.23-2.17-.26-3.27-.16-4.66.61-9.14,2.13-13.25,2.07-5.61,5.55-10.55,10.04-14.39.23-.2.48-.4.72-.6.02-.04.08-.1.18-.2.18-.17.5-.43.96-.84,4.96-4.42,9.15-9.79,13.08-15.12,2.74-3.72,3.21-9.25,3.06-13.75-.1-2.9-.58-5.7-1.4-8.34-.08-.12-.16-.25-.25-.37-2.06,2.6-4.51,4.95-6.76,7.37-7.16,7.18-13.93,14.73-20.77,22.21-5.73,6.28-11.78,12.29-17.36,18.71-5.6,6.45-10.55,13.73-12.95,22.02-2.54,8.76-1.84,18.33,1.53,26.77,3.38,8.48,9.34,15.67,15.16,22.57,3.02,3.59,5.8,7.41,8.65,11.15,6.89,9,13.78,18,20.67,27,7.61,9.94,15.22,19.89,22.83,29.84,5.72,7.48,11.44,14.96,17.14,22.46,1.37,1.81,2.8,3.59,4.11,5.44.7.98,1.29,1.98,1.78,2.98,1.17,2.37,1.82,4.78,2.08,7.13,1.25,11.06-7.57,19.26-7.57,19.26-9.16-12.36-91.44-119.88-90.03-117.89-8.32-11.06-16.53-22.38-17.61-38.48-.03-.46-.06-.93-.07-1.39-.04-.82-.06-1.66-.06-2.6-.08.1-.16.19-.24.3-2.02,2.58-4.62,4.69-6.61,7.36-3.55,4.75-7.13,9.3-9.35,14.85-4.87,12.2-3.77,26.4,2.94,37.65.37.62.75,1.22,1.15,1.82Z"/>
  <polygon class="st1" points="385.02 188.81 385 188.79 385.01 188.83 385.02 188.81"/>
  <path class="st1" d="M186.07,347c-.1-.1-.21-.2-.31-.3,0,0-5.87-7.76-5.87-7.77-2.25-4.19-3.61-8.96-3.78-14.04-.15-4.46.62-9.04,2.41-13.17.91-2.09,2.08-4.07,3.5-5.85.39-.48.79-.95,1.21-1.4,1.18-1.28,2.46-2.47,3.55-3.84.43-.53.84-1.08,1.19-1.66.31,6.17,1.26,17.96,6.86,25.35l.26.35c.14.18.28.37.43.56l.96,1.27c5.06,6.69,34.49,45.67,34.49,45.67,0,0,10.87-11.69,21.78-23.41,1.53-1.42,2.95-2.95,4.25-4.58,6.19-7.7,9.75-17.6,9.39-28.26-.19-5.77-1.52-11.23-3.76-16.18,0,0,0,0,0-.01-2.05-4.54-28.52-38.6-29.76-39.92-3.74-3.97-6.1-9.26-6.3-15.15-.15-4.35.91-8.45,2.86-12-7.03,7.85-71.52,76.81-71.68,76.98l-43.44-57.51c-7.68-10.26-14.79-20.98-15.12-36.31-.01-.5-.02-1.01-.01-1.52-.16.19-6.16,6.46-7.67,8.11-7.35,7.98-11.68,18.75-11.28,30.47.36,10.55,4.5,20.08,11.07,27.31,8.69,11.55,145,192.4,147.18,195.3,8.87,11.78,19.32,20.48,17.4,41.85-.07.75-.15,1.53-.25,2.32-.01.12-.03.25-.05.37.06-.07.49-.56,1.17-1.42,1.98-1.89,3.81-3.94,5.47-6.12,8.82-8.15,14.18-19.97,13.74-32.93-.33-9.54-3.75-18.25-9.26-25.18-2.36-4.33-75.39-100.33-80.65-107.36ZM206.46,279.66c.23-.37.76-1.12,1.33-1.89h0c.5-.68,1.02-1.36,1.37-1.79h0c.14-.19.25-.32.33-.4.16-.17.31-.33.46-.5,0,.01,0,.03,0,.04h0c-.04.63-.03,1.24.02,1.81.25,2.89,1.5,5.16,3.02,7.25.05.05,1.51,1.9,3.2,4.02.31.4,2.27,2.99,4.98,6.6,5.41,7.21,13.81,18.44,18.11,24.15,1.51,2,2.51,3.32,2.7,3.55.15.18.29.35.43.51.53.64.99,1.27,1.36,1.91,2.29,3.83,1.79,7.66-.75,11.89-.2.34-.66.98-1.16,1.66-.76,1.02-1.62,2.13-1.87,2.41-.15.16-.31.33-.46.49.17-2.84-.55-5.03-1.68-6.98-.9-1.55-2.06-2.94-3.23-4.37-.62-.76-25.28-33.69-28.58-38.1-.24-.32-.37-.49-.37-.49-2.23-3.8-1.72-7.6.8-11.8Z"/>
</svg>