<?xml version="1.0" encoding="UTF-8"?>
<svg id="Layer_1" data-name="Layer 1" xmlns="http://www.w3.org/2000/svg" viewBox="0 0 480 480">
  <defs>
    <style>
      .cls-1 {
        fill: #fff;
      }
    </style>
  </defs>
  <path class="cls-1" d="M370.08,117.34v-18.75c0-32.31-26.29-58.59-58.59-58.59h-143.75c-32.31,0-58.59,26.29-58.59,58.59v18.75h260.94Z"/>
  <path class="cls-1" d="M132.58,289.22v127.34c0,12.94,10.49,23.44,23.44,23.44h167.19c12.94,0,23.44-10.49,23.44-23.44v-127.34h-214.06ZM270.86,389.22h-62.5c-6.47,0-11.72-5.25-11.72-11.72s5.25-11.72,11.72-11.72h62.5c6.47,0,11.72,5.25,11.72,11.72s-5.25,11.72-11.72,11.72ZM270.86,339.22h-62.5c-6.47,0-11.72-5.25-11.72-11.72s5.25-11.72,11.72-11.72h62.5c6.47,0,11.72,5.25,11.72,11.72s-5.25,11.72-11.72,11.72Z"/>
  <path class="cls-1" d="M381.02,140.78H98.98c-32.31,0-58.59,26.29-58.59,58.59v93.75c0,32.31,26.29,58.59,58.59,58.59h10.16v-62.5h-7.03c-6.47,0-11.72-5.25-11.72-11.72s5.25-11.72,11.72-11.72h275c6.47,0,11.72,5.25,11.72,11.72s-5.25,11.72-11.72,11.72h-7.03v62.5h10.94c32.31,0,58.59-26.29,58.59-58.59v-93.75c0-32.31-26.29-58.59-58.59-58.59ZM139.61,214.22h-37.5c-6.47,0-11.72-5.25-11.72-11.72s5.25-11.72,11.72-11.72h37.5c6.47,0,11.72,5.25,11.72,11.72s-5.25,11.72-11.72,11.72Z"/>
</svg>